<mxfile host="app.diagrams.net" modified="2024-03-22T15:43:41.984Z" agent="Mozilla/5.0 (Windows NT 10.0; Win64; x64) AppleWebKit/537.36 (KHTML, like Gecko) Chrome/123.0.0.0 Safari/537.36" etag="dMO_lDwSlqMAnSXqyFO3" version="24.0.7" type="device">
  <diagram name="Page-1" id="gJQpoZgs5kC8TGoQiimN">
    <mxGraphModel dx="1050" dy="557" grid="1" gridSize="10" guides="1" tooltips="1" connect="1" arrows="1" fold="1" page="1" pageScale="1" pageWidth="1100" pageHeight="850" math="0" shadow="0">
      <root>
        <mxCell id="0" />
        <mxCell id="1" parent="0" />
        <mxCell id="opQjE_mGETmAMW90Ik7Y-1" value="Train Ticketing System" style="rounded=0;whiteSpace=wrap;html=1;" vertex="1" parent="1">
          <mxGeometry x="485" y="240" width="120" height="60" as="geometry" />
        </mxCell>
        <mxCell id="opQjE_mGETmAMW90Ik7Y-2" value="Show Main Menu&lt;div&gt;Logo &amp;amp; Name&lt;/div&gt;" style="rounded=0;whiteSpace=wrap;html=1;" vertex="1" parent="1">
          <mxGeometry x="485" y="340" width="120" height="60" as="geometry" />
        </mxCell>
        <mxCell id="opQjE_mGETmAMW90Ik7Y-3" value="Staff Information" style="rounded=0;whiteSpace=wrap;html=1;" vertex="1" parent="1">
          <mxGeometry x="225" y="480" width="120" height="60" as="geometry" />
        </mxCell>
        <mxCell id="opQjE_mGETmAMW90Ik7Y-4" value="Member Information" style="rounded=0;whiteSpace=wrap;html=1;" vertex="1" parent="1">
          <mxGeometry x="405" y="480" width="120" height="60" as="geometry" />
        </mxCell>
        <mxCell id="opQjE_mGETmAMW90Ik7Y-5" value="Ticket Scheduling" style="rounded=0;whiteSpace=wrap;html=1;" vertex="1" parent="1">
          <mxGeometry x="585" y="480" width="120" height="60" as="geometry" />
        </mxCell>
        <mxCell id="opQjE_mGETmAMW90Ik7Y-6" value="Ticket Booking" style="rounded=0;whiteSpace=wrap;html=1;" vertex="1" parent="1">
          <mxGeometry x="755" y="480" width="120" height="60" as="geometry" />
        </mxCell>
        <mxCell id="opQjE_mGETmAMW90Ik7Y-7" value="" style="endArrow=none;html=1;rounded=0;entryX=0.5;entryY=1;entryDx=0;entryDy=0;exitX=0.5;exitY=0;exitDx=0;exitDy=0;" edge="1" parent="1" source="opQjE_mGETmAMW90Ik7Y-2" target="opQjE_mGETmAMW90Ik7Y-1">
          <mxGeometry width="50" height="50" relative="1" as="geometry">
            <mxPoint x="560" y="410" as="sourcePoint" />
            <mxPoint x="610" y="360" as="targetPoint" />
          </mxGeometry>
        </mxCell>
        <mxCell id="opQjE_mGETmAMW90Ik7Y-8" value="" style="endArrow=none;html=1;rounded=0;exitX=0.5;exitY=0;exitDx=0;exitDy=0;entryX=0.5;entryY=1;entryDx=0;entryDy=0;" edge="1" parent="1" source="opQjE_mGETmAMW90Ik7Y-3" target="opQjE_mGETmAMW90Ik7Y-2">
          <mxGeometry width="50" height="50" relative="1" as="geometry">
            <mxPoint x="560" y="410" as="sourcePoint" />
            <mxPoint x="610" y="360" as="targetPoint" />
            <Array as="points">
              <mxPoint x="285" y="440" />
              <mxPoint x="545" y="440" />
            </Array>
          </mxGeometry>
        </mxCell>
        <mxCell id="opQjE_mGETmAMW90Ik7Y-9" value="" style="endArrow=none;html=1;rounded=0;exitX=0.5;exitY=1;exitDx=0;exitDy=0;entryX=0.5;entryY=0;entryDx=0;entryDy=0;" edge="1" parent="1" source="opQjE_mGETmAMW90Ik7Y-2" target="opQjE_mGETmAMW90Ik7Y-6">
          <mxGeometry width="50" height="50" relative="1" as="geometry">
            <mxPoint x="560" y="410" as="sourcePoint" />
            <mxPoint x="610" y="360" as="targetPoint" />
            <Array as="points">
              <mxPoint x="545" y="440" />
              <mxPoint x="815" y="440" />
            </Array>
          </mxGeometry>
        </mxCell>
        <mxCell id="opQjE_mGETmAMW90Ik7Y-10" value="" style="endArrow=none;html=1;rounded=0;exitX=0.5;exitY=0;exitDx=0;exitDy=0;" edge="1" parent="1" source="opQjE_mGETmAMW90Ik7Y-4">
          <mxGeometry width="50" height="50" relative="1" as="geometry">
            <mxPoint x="457" y="475" as="sourcePoint" />
            <mxPoint x="465" y="440" as="targetPoint" />
          </mxGeometry>
        </mxCell>
        <mxCell id="opQjE_mGETmAMW90Ik7Y-11" value="" style="endArrow=none;html=1;rounded=0;exitX=0.5;exitY=0;exitDx=0;exitDy=0;" edge="1" parent="1" source="opQjE_mGETmAMW90Ik7Y-5">
          <mxGeometry width="50" height="50" relative="1" as="geometry">
            <mxPoint x="690" y="490" as="sourcePoint" />
            <mxPoint x="645" y="440" as="targetPoint" />
          </mxGeometry>
        </mxCell>
      </root>
    </mxGraphModel>
  </diagram>
</mxfile>
